<?xml version="1.0" encoding="UTF-8" standalone="no"?>
<!DOCTYPE svg PUBLIC "-//W3C//DTD SVG 1.1//EN" "http://www.w3.org/Graphics/SVG/1.1/DTD/svg11.dtd">
<!-- Generated by graphviz version 2.40.1 (20161225.0304)
 -->
<!-- Title: Pometo Pages: 1 -->
<svg width="972pt" height="1556pt" viewBox="0.00 0.00 972.39 1556.00" xmlns="http://www.w3.org/2000/svg" xmlns:xlink="http://www.w3.org/1999/xlink">
<g id="graph0" class="graph" transform="scale(1 1) rotate(0) translate(4 1552)">
<title>Pometo</title>
<polygon fill="#ffffff" stroke="transparent" points="-4,4 -4,-1552 968.3933,-1552 968.3933,4 -4,4"/>
<!-- Exprs -->
<g id="node1" class="node">
<title>Exprs</title>
<ellipse fill="none" stroke="#000000" cx="200.3933" cy="-1530" rx="33.6266" ry="18"/>
<text text-anchor="middle" x="200.3933" y="-1525.8" font-family="Times,serif" font-size="14.00" fill="#000000">Exprs</text>
</g>
<!-- Expr -->
<g id="node2" class="node">
<title>Expr</title>
<ellipse fill="none" stroke="#000000" cx="323.3933" cy="-1458" rx="29.6166" ry="18"/>
<text text-anchor="middle" x="323.3933" y="-1453.8" font-family="Times,serif" font-size="14.00" fill="#000000">Expr</text>
</g>
<!-- Exprs&#45;&gt;Expr -->
<g id="edge1" class="edge">
<title>Exprs-&gt;Expr</title>
<path fill="none" stroke="#000000" d="M223.2404,-1516.6261C242.9363,-1505.0968 271.5269,-1488.3608 293.1235,-1475.7189"/>
<polygon fill="#000000" stroke="#000000" points="295.0426,-1478.6511 301.9046,-1470.5788 291.5063,-1472.61 295.0426,-1478.6511"/>
</g>
<!-- Train -->
<g id="node3" class="node">
<title>Train</title>
<ellipse fill="none" stroke="#000000" cx="76.3933" cy="-1314" rx="31.8993" ry="18"/>
<text text-anchor="middle" x="76.3933" y="-1309.8" font-family="Times,serif" font-size="14.00" fill="#000000">Train</text>
</g>
<!-- Exprs&#45;&gt;Train -->
<g id="edge2" class="edge">
<title>Exprs-&gt;Train</title>
<path fill="none" stroke="#000000" d="M190.4555,-1512.6889C168.7793,-1474.9305 117.1407,-1384.9794 91.4472,-1340.223"/>
<polygon fill="#000000" stroke="#000000" points="94.3926,-1338.3235 86.3784,-1331.3935 88.3218,-1341.8086 94.3926,-1338.3235"/>
</g>
<!-- Dyadic -->
<g id="node4" class="node">
<title>Dyadic</title>
<ellipse fill="none" stroke="#000000" cx="390.3933" cy="-1314" rx="38.844" ry="18"/>
<text text-anchor="middle" x="390.3933" y="-1309.8" font-family="Times,serif" font-size="14.00" fill="#000000">Dyadic</text>
</g>
<!-- Expr&#45;&gt;Dyadic -->
<g id="edge3" class="edge">
<title>Expr-&gt;Dyadic</title>
<path fill="none" stroke="#000000" d="M338.4512,-1442.1233C347.4029,-1431.9251 358.3492,-1418.0058 365.3933,-1404 375.2606,-1384.3807 381.6842,-1360.3334 385.5464,-1342.033"/>
<polygon fill="#000000" stroke="#000000" points="389.0241,-1342.488 387.531,-1331.9989 382.1571,-1341.1298 389.0241,-1342.488"/>
</g>
<!-- Monadic -->
<g id="node5" class="node">
<title>Monadic</title>
<ellipse fill="none" stroke="#000000" cx="155.3933" cy="-1242" rx="45.2266" ry="18"/>
<text text-anchor="middle" x="155.3933" y="-1237.8" font-family="Times,serif" font-size="14.00" fill="#000000">Monadic</text>
</g>
<!-- Expr&#45;&gt;Monadic -->
<g id="edge4" class="edge">
<title>Expr-&gt;Monadic</title>
<path fill="none" stroke="#000000" d="M301.1611,-1445.774C267.9691,-1426.2937 205.9892,-1384.9457 174.3933,-1332 163.1905,-1313.2274 158.5359,-1288.7962 156.6297,-1270.1263"/>
<polygon fill="#000000" stroke="#000000" points="160.1176,-1269.834 155.8127,-1260.1532 153.141,-1270.4056 160.1176,-1269.834"/>
</g>
<!-- Associative -->
<g id="node6" class="node">
<title>Associative</title>
<ellipse fill="none" stroke="#000000" cx="239.3933" cy="-1314" rx="56.1744" ry="18"/>
<text text-anchor="middle" x="239.3933" y="-1309.8" font-family="Times,serif" font-size="14.00" fill="#000000">Associative</text>
</g>
<!-- Expr&#45;&gt;Associative -->
<g id="edge5" class="edge">
<title>Expr-&gt;Associative</title>
<path fill="none" stroke="#000000" d="M309.1341,-1441.6792C300.483,-1431.3139 289.5721,-1417.3749 281.3933,-1404 269.1736,-1384.017 258.0961,-1359.8995 250.3895,-1341.6621"/>
<polygon fill="#000000" stroke="#000000" points="253.5299,-1340.0977 246.4689,-1332.1988 247.0629,-1342.777 253.5299,-1340.0977"/>
</g>
<!-- Vecs -->
<g id="node7" class="node">
<title>Vecs</title>
<ellipse fill="none" stroke="#000000" cx="734.3933" cy="-1170" rx="30.1746" ry="18"/>
<text text-anchor="middle" x="734.3933" y="-1165.8" font-family="Times,serif" font-size="14.00" fill="#000000">Vecs</text>
</g>
<!-- Expr&#45;&gt;Vecs -->
<g id="edge6" class="edge">
<title>Expr-&gt;Vecs</title>
<path fill="none" stroke="#000000" d="M342.9402,-1444.3029C409.6064,-1397.5879 628.226,-1244.3946 706.3383,-1189.659"/>
<polygon fill="#000000" stroke="#000000" points="708.5457,-1192.386 714.7267,-1183.7809 704.5287,-1186.6533 708.5457,-1192.386"/>
</g>
<!-- stdlib -->
<g id="node8" class="node">
<title>stdlib</title>
<ellipse fill="none" stroke="#000000" cx="323.3933" cy="-1386" rx="32.5001" ry="18"/>
<text text-anchor="middle" x="323.3933" y="-1381.8" font-family="Times,serif" font-size="14.00" fill="#000000">stdlib</text>
</g>
<!-- Expr&#45;&gt;stdlib -->
<g id="edge7" class="edge">
<title>Expr-&gt;stdlib</title>
<path fill="none" stroke="#000000" d="M311.7917,-1441.3008C309.9742,-1432.9703 309.4617,-1422.6822 310.2543,-1413.2478"/>
<polygon fill="#000000" stroke="#000000" points="313.7533,-1413.5033 311.7038,-1403.1086 306.8237,-1412.5127 313.7533,-1413.5033"/>
</g>
<!-- Expr&#45;&gt;stdlib -->
<g id="edge9" class="edge">
<title>Expr-&gt;stdlib</title>
<path fill="none" stroke="#000000" d="M323.3933,-1439.8314C323.3933,-1432.131 323.3933,-1422.9743 323.3933,-1414.4166"/>
<polygon fill="#000000" stroke="#000000" points="326.8934,-1414.4132 323.3933,-1404.4133 319.8934,-1414.4133 326.8934,-1414.4132"/>
</g>
<!-- Expr&#45;&gt;stdlib -->
<g id="edge11" class="edge">
<title>Expr-&gt;stdlib</title>
<path fill="none" stroke="#000000" d="M334.9948,-1441.3008C336.8124,-1432.9703 337.3249,-1422.6822 336.5322,-1413.2478"/>
<polygon fill="#000000" stroke="#000000" points="339.9628,-1412.5127 335.0828,-1403.1086 333.0333,-1413.5033 339.9628,-1412.5127"/>
</g>
<!-- Args -->
<g id="node9" class="node">
<title>Args</title>
<ellipse fill="none" stroke="#000000" cx="286.3933" cy="-1242" rx="29.6147" ry="18"/>
<text text-anchor="middle" x="286.3933" y="-1237.8" font-family="Times,serif" font-size="14.00" fill="#000000">Args</text>
</g>
<!-- Train&#45;&gt;Args -->
<g id="edge26" class="edge">
<title>Train-&gt;Args</title>
<path fill="none" stroke="#000000" d="M103.8471,-1304.5873C141.4387,-1291.6987 208.9916,-1268.5377 250.539,-1254.2929"/>
<polygon fill="#000000" stroke="#000000" points="251.93,-1257.5161 260.2543,-1250.9619 249.6597,-1250.8944 251.93,-1257.5161"/>
</g>
<!-- open_bracket -->
<g id="node14" class="node">
<title>open_bracket</title>
<ellipse fill="none" stroke="#000000" cx="233.3933" cy="-954" rx="63.1054" ry="18"/>
<text text-anchor="middle" x="233.3933" y="-949.8" font-family="Times,serif" font-size="14.00" fill="#000000">open_bracket</text>
</g>
<!-- Train&#45;&gt;open_bracket -->
<g id="edge31" class="edge">
<title>Train-&gt;open_bracket</title>
<path fill="none" stroke="#000000" d="M66.9271,-1296.8073C58.1023,-1269.9022 48.3933,-1216.1465 48.3933,-1170 48.3933,-1170 48.3933,-1170 48.3933,-1098 48.3933,-1031.8928 123.6913,-990.6578 178.303,-970.0405"/>
<polygon fill="#000000" stroke="#000000" points="179.6958,-973.2583 187.8954,-966.5489 177.3014,-966.6805 179.6958,-973.2583"/>
</g>
<!-- Train&#45;&gt;open_bracket -->
<g id="edge35" class="edge">
<title>Train-&gt;open_bracket</title>
<path fill="none" stroke="#000000" d="M78.2755,-1295.9156C75.8913,-1268.7281 66.3933,-1215.6422 66.3933,-1170 66.3933,-1170 66.3933,-1170 66.3933,-1098 66.3933,-1034.2065 136.513,-993.5746 185.9707,-972.2812"/>
<polygon fill="#000000" stroke="#000000" points="187.3734,-975.4884 195.2514,-968.4041 184.675,-969.0294 187.3734,-975.4884"/>
</g>
<!-- Dyadic&#45;&gt;Args -->
<g id="edge13" class="edge">
<title>Dyadic-&gt;Args</title>
<path fill="none" stroke="#000000" d="M368.5915,-1298.9064C352.8678,-1288.0208 331.5069,-1273.2325 314.5017,-1261.4596"/>
<polygon fill="#000000" stroke="#000000" points="316.2732,-1258.4292 306.059,-1255.6147 312.2887,-1264.1845 316.2732,-1258.4292"/>
</g>
<!-- ConsecutiveFns -->
<g id="node11" class="node">
<title>ConsecutiveFns</title>
<ellipse fill="none" stroke="#000000" cx="185.3933" cy="-1170" rx="72.9528" ry="18"/>
<text text-anchor="middle" x="185.3933" y="-1165.8" font-family="Times,serif" font-size="14.00" fill="#000000">ConsecutiveFns</text>
</g>
<!-- Monadic&#45;&gt;ConsecutiveFns -->
<g id="edge16" class="edge">
<title>Monadic-&gt;ConsecutiveFns</title>
<path fill="none" stroke="#000000" d="M162.809,-1224.2022C166.173,-1216.1287 170.2276,-1206.3976 173.9675,-1197.422"/>
<polygon fill="#000000" stroke="#000000" points="177.239,-1198.6701 177.8545,-1188.0931 170.7775,-1195.9777 177.239,-1198.6701"/>
</g>
<!-- Associative&#45;&gt;Args -->
<g id="edge19" class="edge">
<title>Associative-&gt;Args</title>
<path fill="none" stroke="#000000" d="M251.0113,-1296.2022C256.6145,-1287.6186 263.4408,-1277.1613 269.5971,-1267.7303"/>
<polygon fill="#000000" stroke="#000000" points="272.6972,-1269.3842 275.2326,-1259.0972 266.8355,-1265.5578 272.6972,-1269.3842"/>
</g>
<!-- Associative&#45;&gt;ConsecutiveFns -->
<g id="edge18" class="edge">
<title>Associative-&gt;ConsecutiveFns</title>
<path fill="none" stroke="#000000" d="M233.9212,-1295.8885C228.2589,-1277.5831 218.9224,-1248.5691 209.3933,-1224 206.0336,-1215.3377 202.0475,-1206.0463 198.2986,-1197.6549"/>
<polygon fill="#000000" stroke="#000000" points="201.3774,-1195.9696 194.0584,-1188.3092 195.0028,-1198.8618 201.3774,-1195.9696"/>
</g>
<!-- Vector -->
<g id="node13" class="node">
<title>Vector</title>
<ellipse fill="none" stroke="#000000" cx="657.3933" cy="-1098" rx="37.1174" ry="18"/>
<text text-anchor="middle" x="657.3933" y="-1093.8" font-family="Times,serif" font-size="14.00" fill="#000000">Vector</text>
</g>
<!-- Vecs&#45;&gt;Vector -->
<g id="edge92" class="edge">
<title>Vecs-&gt;Vector</title>
<path fill="none" stroke="#000000" d="M718.0636,-1154.7307C707.6341,-1144.9784 693.912,-1132.1473 682.1564,-1121.1551"/>
<polygon fill="#000000" stroke="#000000" points="684.4644,-1118.5215 674.7696,-1114.248 679.6834,-1123.6344 684.4644,-1118.5215"/>
</g>
<!-- stdlib&#45;&gt;Associative -->
<g id="edge12" class="edge">
<title>stdlib-&gt;Associative</title>
<path fill="none" stroke="#000000" d="M305.579,-1370.7307C294.3324,-1361.0907 279.5759,-1348.4422 266.8511,-1337.5353"/>
<polygon fill="#000000" stroke="#000000" points="269.1106,-1334.8622 259.2403,-1331.0117 264.5551,-1340.177 269.1106,-1334.8622"/>
</g>
<!-- stdlib&#45;&gt;Args -->
<g id="edge8" class="edge">
<title>stdlib-&gt;Args</title>
<path fill="none" stroke="#000000" d="M320.2038,-1367.9268C316.8324,-1349.6511 311.083,-1320.6598 304.3933,-1296 302.0388,-1287.321 299.0838,-1277.9888 296.2527,-1269.5646"/>
<polygon fill="#000000" stroke="#000000" points="299.4716,-1268.1621 292.9095,-1259.8441 292.8522,-1270.4388 299.4716,-1268.1621"/>
</g>
<!-- MaybeVector -->
<g id="node10" class="node">
<title>MaybeVector</title>
<ellipse fill="none" stroke="#000000" cx="668.3933" cy="-882" rx="64.2456" ry="18"/>
<text text-anchor="middle" x="668.3933" y="-877.8" font-family="Times,serif" font-size="14.00" fill="#000000">MaybeVector</text>
</g>
<!-- stdlib&#45;&gt;MaybeVector -->
<g id="edge10" class="edge">
<title>stdlib-&gt;MaybeVector</title>
<path fill="none" stroke="#000000" d="M353.3712,-1378.5634C470.1776,-1349.5625 888.3933,-1245.4836 888.3933,-1242 888.3933,-1242 888.3933,-1242 888.3933,-1026 888.3933,-984.6664 778.3028,-929.7522 713.8773,-901.1549"/>
<polygon fill="#000000" stroke="#000000" points="715.2849,-897.9505 704.7218,-897.1313 712.4686,-904.3589 715.2849,-897.9505"/>
</g>
<!-- Args&#45;&gt;Vecs -->
<g id="edge25" class="edge">
<title>Args-&gt;Vecs</title>
<path fill="none" stroke="#000000" d="M315.4426,-1237.3314C393.2176,-1224.8318 606.2683,-1190.5915 694.8997,-1176.3472"/>
<polygon fill="#000000" stroke="#000000" points="695.5083,-1179.7944 704.8262,-1174.7519 694.3975,-1172.8831 695.5083,-1179.7944"/>
</g>
<!-- Args&#45;&gt;ConsecutiveFns -->
<g id="edge14" class="edge">
<title>Args-&gt;ConsecutiveFns</title>
<path fill="none" stroke="#000000" d="M260.1659,-1233.1714C240.9178,-1223.6423 217.1998,-1208.0407 200.7394,-1194.7271"/>
<polygon fill="#000000" stroke="#000000" points="202.7393,-1191.8332 192.8553,-1188.0177 198.2026,-1197.1641 202.7393,-1191.8332"/>
</g>
<!-- Args&#45;&gt;ConsecutiveFns -->
<g id="edge20" class="edge">
<title>Args-&gt;ConsecutiveFns</title>
<path fill="none" stroke="#000000" d="M279.1742,-1224.2022C267.9984,-1214.0602 250.3636,-1201.3025 232.9794,-1190.7125"/>
<polygon fill="#000000" stroke="#000000" points="234.3407,-1187.4525 223.947,-1185.3975 230.7906,-1193.4855 234.3407,-1187.4525"/>
</g>
<!-- Args&#45;&gt;open_bracket -->
<g id="edge27" class="edge">
<title>Args-&gt;open_bracket</title>
<path fill="none" stroke="#000000" d="M283.0779,-1223.9843C274.1175,-1175.2939 249.3662,-1040.7961 238.5566,-982.0573"/>
<polygon fill="#000000" stroke="#000000" points="241.9596,-981.2102 236.7074,-972.0089 235.0752,-982.4772 241.9596,-981.2102"/>
</g>
<!-- Var -->
<g id="node12" class="node">
<title>Var</title>
<ellipse fill="none" stroke="#000000" cx="777.3933" cy="-810" rx="27" ry="18"/>
<text text-anchor="middle" x="777.3933" y="-805.8" font-family="Times,serif" font-size="14.00" fill="#000000">Var</text>
</g>
<!-- MaybeVector&#45;&gt;Var -->
<g id="edge21" class="edge">
<title>MaybeVector-&gt;Var</title>
<path fill="none" stroke="#000000" d="M693.674,-865.3008C710.3831,-854.2636 732.2947,-839.7899 749.5099,-828.4184"/>
<polygon fill="#000000" stroke="#000000" points="751.617,-831.2213 758.0319,-822.7892 747.7588,-825.3805 751.617,-831.2213"/>
</g>
<!-- MaybeVector&#45;&gt;Vector -->
<g id="edge23" class="edge">
<title>MaybeVector-&gt;Vector</title>
<path fill="none" stroke="#000000" d="M667.4692,-900.1451C665.5519,-937.7945 661.1292,-1024.6409 658.834,-1069.7103"/>
<polygon fill="#000000" stroke="#000000" points="655.3254,-1069.7904 658.3122,-1079.9555 662.3164,-1070.1465 655.3254,-1069.7904"/>
</g>
<!-- close_bracket -->
<g id="node16" class="node">
<title>close_bracket</title>
<ellipse fill="none" stroke="#000000" cx="352.3933" cy="-810" rx="64.2436" ry="18"/>
<text text-anchor="middle" x="352.3933" y="-805.8" font-family="Times,serif" font-size="14.00" fill="#000000">close_bracket</text>
</g>
<!-- MaybeVector&#45;&gt;close_bracket -->
<g id="edge98" class="edge">
<title>MaybeVector-&gt;close_bracket</title>
<path fill="none" stroke="#000000" d="M618.8845,-870.546C609.4272,-868.3662 599.6055,-866.108 590.3933,-864 529.8551,-850.1471 460.6187,-834.455 412.4902,-823.5711"/>
<polygon fill="#000000" stroke="#000000" points="413.0769,-820.1155 402.5512,-821.324 411.5331,-826.9431 413.0769,-820.1155"/>
</g>
<!-- ConsecutiveFns&#45;&gt;Args -->
<g id="edge15" class="edge">
<title>ConsecutiveFns-&gt;Args</title>
<path fill="none" stroke="#000000" d="M203.9401,-1187.4105C218.4423,-1198.5707 238.6934,-1213.0155 255.5722,-1224.2428"/>
<polygon fill="#000000" stroke="#000000" points="253.7589,-1227.239 264.043,-1229.7862 257.592,-1221.3817 253.7589,-1227.239"/>
</g>
<!-- ConsecutiveFns&#45;&gt;Args -->
<g id="edge17" class="edge">
<title>ConsecutiveFns-&gt;Args</title>
<path fill="none" stroke="#000000" d="M214.705,-1186.7559C229.9659,-1196.8531 248.283,-1209.8109 262.6559,-1220.639"/>
<polygon fill="#000000" stroke="#000000" points="260.5425,-1223.429 270.6098,-1226.7307 264.7987,-1217.8716 260.5425,-1223.429"/>
</g>
<!-- Fns -->
<g id="node17" class="node">
<title>Fns</title>
<ellipse fill="none" stroke="#000000" cx="233.3933" cy="-666" rx="27" ry="18"/>
<text text-anchor="middle" x="233.3933" y="-661.8" font-family="Times,serif" font-size="14.00" fill="#000000">Fns</text>
</g>
<!-- ConsecutiveFns&#45;&gt;Fns -->
<g id="edge46" class="edge">
<title>ConsecutiveFns-&gt;Fns</title>
<path fill="none" stroke="#000000" d="M159.3994,-1152.96C147.5701,-1143.6175 134.8029,-1130.9015 128.3933,-1116 122.0712,-1101.302 126.5949,-1095.8986 128.3933,-1080 145.2444,-931.0296 200.9721,-759.1335 223.6576,-693.4448"/>
<polygon fill="#000000" stroke="#000000" points="227.0211,-694.4286 227.0038,-683.8338 220.4103,-692.127 227.0211,-694.4286"/>
</g>
<!-- Fn -->
<g id="node18" class="node">
<title>Fn</title>
<ellipse fill="none" stroke="#000000" cx="233.3933" cy="-594" rx="27" ry="18"/>
<text text-anchor="middle" x="233.3933" y="-589.8" font-family="Times,serif" font-size="14.00" fill="#000000">Fn</text>
</g>
<!-- ConsecutiveFns&#45;&gt;Fn -->
<g id="edge47" class="edge">
<title>ConsecutiveFns-&gt;Fn</title>
<path fill="none" stroke="#000000" d="M182.4375,-1151.7776C176.9569,-1116.9634 165.411,-1038.535 161.3933,-972 154.1374,-851.8395 165.2153,-700.7792 187.3933,-648 192.4623,-635.9367 201.2475,-624.5849 209.791,-615.4321"/>
<polygon fill="#000000" stroke="#000000" points="212.2989,-617.8736 216.8237,-608.2936 207.3123,-612.9609 212.2989,-617.8736"/>
</g>
<!-- Var&#45;&gt;Vector -->
<g id="edge22" class="edge">
<title>Var-&gt;Vector</title>
<path fill="none" stroke="#000000" d="M796.7342,-823.0469C806.8886,-833.3264 817.6915,-848.4712 822.3933,-864 827.0298,-879.3135 827.6332,-884.8824 822.3933,-900 796.2471,-975.4337 728.1438,-1043.9065 687.9035,-1077.0318"/>
<polygon fill="#000000" stroke="#000000" points="685.6175,-1074.3786 680.0062,-1083.3655 689.9971,-1079.8393 685.6175,-1074.3786"/>
</g>
<!-- let_op -->
<g id="node35" class="node">
<title>let_op</title>
<ellipse fill="none" stroke="#000000" cx="777.3933" cy="-738" rx="35.3528" ry="18"/>
<text text-anchor="middle" x="777.3933" y="-733.8" font-family="Times,serif" font-size="14.00" fill="#000000">let_op</text>
</g>
<!-- Var&#45;&gt;let_op -->
<g id="edge81" class="edge">
<title>Var-&gt;let_op</title>
<path fill="none" stroke="#000000" d="M760.7473,-795.4297C757.2598,-786.3692 756.3034,-774.4611 757.878,-763.8387"/>
<polygon fill="#000000" stroke="#000000" points="761.3574,-764.3395 760.2963,-753.7979 754.552,-762.7004 761.3574,-764.3395"/>
</g>
<!-- Var&#45;&gt;let_op -->
<g id="edge84" class="edge">
<title>Var-&gt;let_op</title>
<path fill="none" stroke="#000000" d="M771.4776,-792.2022C770.6878,-784.3271 770.4588,-774.875 770.7904,-766.0852"/>
<polygon fill="#000000" stroke="#000000" points="774.3002,-766.0532 771.4731,-755.8425 767.3157,-765.5876 774.3002,-766.0532"/>
</g>
<!-- Var&#45;&gt;let_op -->
<g id="edge87" class="edge">
<title>Var-&gt;let_op</title>
<path fill="none" stroke="#000000" d="M783.309,-792.2022C784.0988,-784.3271 784.3278,-774.875 783.9961,-766.0852"/>
<polygon fill="#000000" stroke="#000000" points="787.4708,-765.5876 783.3135,-755.8425 780.4863,-766.0532 787.4708,-765.5876"/>
</g>
<!-- Var&#45;&gt;let_op -->
<g id="edge90" class="edge">
<title>Var-&gt;let_op</title>
<path fill="none" stroke="#000000" d="M794.0392,-795.4297C797.5267,-786.3692 798.4832,-774.4611 796.9086,-763.8387"/>
<polygon fill="#000000" stroke="#000000" points="800.2346,-762.7004 794.4903,-753.7979 793.4292,-764.3395 800.2346,-762.7004"/>
</g>
<!-- Vector&#45;&gt;Var -->
<g id="edge24" class="edge">
<title>Vector-&gt;Var</title>
<path fill="none" stroke="#000000" d="M672.1512,-1081.217C704.0378,-1049.9496 777.0907,-978.7699 804.3933,-900 809.6332,-884.8824 809.0298,-879.3135 804.3933,-864 801.42,-854.1799 796.0069,-844.5134 790.6709,-836.1337"/>
<polygon fill="#000000" stroke="#000000" points="793.4641,-834.0121 785.0303,-827.5996 787.6244,-837.8719 793.4641,-834.0121"/>
</g>
<!-- Vector&#45;&gt;Vector -->
<g id="edge106" class="edge">
<title>Vector-&gt;Vector</title>
<path fill="none" stroke="#000000" d="M692.2306,-1104.7496C703.6269,-1104.7147 712.7015,-1102.4648 712.7015,-1098 712.7015,-1095.0002 708.6051,-1093.0002 702.4604,-1092.0002"/>
<polygon fill="#000000" stroke="#000000" points="702.4597,-1088.4908 692.2306,-1091.2504 701.9479,-1095.4721 702.4597,-1088.4908"/>
</g>
<!-- Vector&#45;&gt;Vector -->
<g id="edge108" class="edge">
<title>Vector-&gt;Vector</title>
<path fill="none" stroke="#000000" d="M685.987,-1109.7565C708.1238,-1114.1532 730.7015,-1110.2344 730.7015,-1098 730.7015,-1087.6295 714.4789,-1083.2338 696.0535,-1084.8131"/>
<polygon fill="#000000" stroke="#000000" points="695.3952,-1081.3714 685.987,-1086.2435 696.38,-1088.3018 695.3952,-1081.3714"/>
</g>
<!-- Vector&#45;&gt;close_bracket -->
<g id="edge95" class="edge">
<title>Vector-&gt;close_bracket</title>
<path fill="none" stroke="#000000" d="M655.5361,-1079.7566C649.9226,-1034.906 628.8476,-918.9262 557.3933,-864 535.5086,-847.1774 468.8888,-831.5294 417.4715,-821.455"/>
<polygon fill="#000000" stroke="#000000" points="417.8901,-817.9714 407.4084,-819.5158 416.5654,-824.8449 417.8901,-817.9714"/>
</g>
<!-- Int -->
<g id="node29" class="node">
<title>Int</title>
<ellipse fill="none" stroke="#000000" cx="269.3933" cy="-90" rx="27" ry="18"/>
<text text-anchor="middle" x="269.3933" y="-85.8" font-family="Times,serif" font-size="14.00" fill="#000000">Int</text>
</g>
<!-- Vector&#45;&gt;Int -->
<g id="edge109" class="edge">
<title>Vector-&gt;Int</title>
<path fill="none" stroke="#000000" d="M689.841,-1088.878C761.3868,-1066.565 926.3933,-1002.0871 926.3933,-882 926.3933,-882 926.3933,-882 926.3933,-234 926.3933,-170.0557 445.3923,-110.1129 306.5162,-94.1387"/>
<polygon fill="#000000" stroke="#000000" points="306.7059,-90.6377 296.3733,-92.9804 305.9116,-97.5925 306.7059,-90.6377"/>
</g>
<!-- Scalar -->
<g id="node36" class="node">
<title>Scalar</title>
<ellipse fill="none" stroke="#000000" cx="509.3933" cy="-1026" rx="35.3276" ry="18"/>
<text text-anchor="middle" x="509.3933" y="-1021.8" font-family="Times,serif" font-size="14.00" fill="#000000">Scalar</text>
</g>
<!-- Vector&#45;&gt;Scalar -->
<g id="edge105" class="edge">
<title>Vector-&gt;Scalar</title>
<path fill="none" stroke="#000000" d="M628.4997,-1086.432C603.3723,-1075.1028 567.2332,-1057.6614 541.2854,-1044.4228"/>
<polygon fill="#000000" stroke="#000000" points="542.7185,-1041.2239 532.226,-1039.7546 539.5121,-1047.4464 542.7185,-1041.2239"/>
</g>
<!-- Vector&#45;&gt;Scalar -->
<g id="edge107" class="edge">
<title>Vector-&gt;Scalar</title>
<path fill="none" stroke="#000000" d="M633.987,-1083.9468C610.4154,-1071.683 573.9649,-1053.9245 546.4926,-1041.3044"/>
<polygon fill="#000000" stroke="#000000" points="547.7374,-1038.0256 537.1855,-1037.0722 544.8398,-1044.3978 547.7374,-1038.0256"/>
</g>
<!-- open_bracket&#45;&gt;MaybeVector -->
<g id="edge97" class="edge">
<title>open_bracket-&gt;MaybeVector</title>
<path fill="none" stroke="#000000" d="M288.0459,-944.9541C368.1622,-931.6934 517.2547,-907.016 603.0503,-892.8154"/>
<polygon fill="#000000" stroke="#000000" points="603.6411,-896.2653 612.9353,-891.1793 602.498,-889.3593 603.6411,-896.2653"/>
</g>
<!-- open_bracket&#45;&gt;Vector -->
<g id="edge94" class="edge">
<title>open_bracket-&gt;Vector</title>
<path fill="none" stroke="#000000" d="M259.3039,-970.5415C291.9357,-990.6779 350.2947,-1024.4129 404.3933,-1044 474.1255,-1069.2475 559.1604,-1084.3913 610.7453,-1091.9615"/>
<polygon fill="#000000" stroke="#000000" points="610.5192,-1095.4648 620.9147,-1093.4191 611.5125,-1088.5356 610.5192,-1095.4648"/>
</g>
<!-- TrainFns -->
<g id="node15" class="node">
<title>TrainFns</title>
<ellipse fill="none" stroke="#000000" cx="233.3933" cy="-882" rx="45.8041" ry="18"/>
<text text-anchor="middle" x="233.3933" y="-877.8" font-family="Times,serif" font-size="14.00" fill="#000000">TrainFns</text>
</g>
<!-- open_bracket&#45;&gt;TrainFns -->
<g id="edge28" class="edge">
<title>open_bracket-&gt;TrainFns</title>
<path fill="none" stroke="#000000" d="M221.5618,-936.2022C219.953,-928.1807 219.5076,-918.5231 220.2257,-909.5957"/>
<polygon fill="#000000" stroke="#000000" points="223.7062,-909.9771 221.6032,-899.593 216.7716,-909.022 223.7062,-909.9771"/>
</g>
<!-- open_bracket&#45;&gt;TrainFns -->
<g id="edge32" class="edge">
<title>open_bracket-&gt;TrainFns</title>
<path fill="none" stroke="#000000" d="M233.3933,-935.8314C233.3933,-928.131 233.3933,-918.9743 233.3933,-910.4166"/>
<polygon fill="#000000" stroke="#000000" points="236.8934,-910.4132 233.3933,-900.4133 229.8934,-910.4133 236.8934,-910.4132"/>
</g>
<!-- open_bracket&#45;&gt;TrainFns -->
<g id="edge36" class="edge">
<title>open_bracket-&gt;TrainFns</title>
<path fill="none" stroke="#000000" d="M245.2247,-936.2022C246.8336,-928.1807 247.279,-918.5231 246.5608,-909.5957"/>
<polygon fill="#000000" stroke="#000000" points="250.015,-909.022 245.1833,-899.593 243.0804,-909.9771 250.015,-909.022"/>
</g>
<!-- TrainFns&#45;&gt;close_bracket -->
<g id="edge29" class="edge">
<title>TrainFns-&gt;close_bracket</title>
<path fill="none" stroke="#000000" d="M249.6526,-865.1192C264.7832,-854.5943 287.0594,-840.9979 307.2051,-829.9426"/>
<polygon fill="#000000" stroke="#000000" points="309.1293,-832.8818 316.2779,-825.062 305.8132,-826.7171 309.1293,-832.8818"/>
</g>
<!-- TrainFns&#45;&gt;close_bracket -->
<g id="edge33" class="edge">
<title>TrainFns-&gt;close_bracket</title>
<path fill="none" stroke="#000000" d="M258.6301,-866.7307C275.4749,-856.5389 297.8774,-842.9844 316.5604,-831.6804"/>
<polygon fill="#000000" stroke="#000000" points="318.3763,-834.6726 325.1203,-826.5013 314.7526,-828.6835 318.3763,-834.6726"/>
</g>
<!-- TrainFns&#45;&gt;close_bracket -->
<g id="edge37" class="edge">
<title>TrainFns-&gt;close_bracket</title>
<path fill="none" stroke="#000000" d="M265.6234,-868.9613C284.9623,-859.0012 308.7513,-845.0166 326.8109,-833.1666"/>
<polygon fill="#000000" stroke="#000000" points="328.8241,-836.0306 335.1716,-827.5477 324.9195,-830.2207 328.8241,-836.0306"/>
</g>
<!-- TrainFns&#45;&gt;Fns -->
<g id="edge38" class="edge">
<title>TrainFns-&gt;Fns</title>
<path fill="none" stroke="#000000" d="M221.6578,-864.3238C211.0382,-826.3596 210.3524,-736.864 219.6004,-692.2441"/>
<polygon fill="#000000" stroke="#000000" points="223.0251,-692.9744 222.0162,-682.4277 216.2279,-691.3016 223.0251,-692.9744"/>
</g>
<!-- TrainFns&#45;&gt;Fns -->
<g id="edge40" class="edge">
<title>TrainFns-&gt;Fns</title>
<path fill="none" stroke="#000000" d="M229.4474,-863.9555C225.9876,-826.3001 225.7294,-739.1207 228.6728,-694.0734"/>
<polygon fill="#000000" stroke="#000000" points="232.1825,-694.0819 229.4661,-683.8413 225.2035,-693.5407 232.1825,-694.0819"/>
</g>
<!-- TrainFns&#45;&gt;Fns -->
<g id="edge42" class="edge">
<title>TrainFns-&gt;Fns</title>
<path fill="none" stroke="#000000" d="M237.3392,-863.9555C240.799,-826.3001 241.0572,-739.1207 238.1138,-694.0734"/>
<polygon fill="#000000" stroke="#000000" points="241.5831,-693.5407 237.3204,-683.8413 234.604,-694.0819 241.5831,-693.5407"/>
</g>
<!-- TrainFns&#45;&gt;Fns -->
<g id="edge44" class="edge">
<title>TrainFns-&gt;Fns</title>
<path fill="none" stroke="#000000" d="M245.1287,-864.3238C255.7483,-826.3596 256.4341,-736.864 247.1861,-692.2441"/>
<polygon fill="#000000" stroke="#000000" points="250.5587,-691.3016 244.7704,-682.4277 243.7615,-692.9744 250.5587,-691.3016"/>
</g>
<!-- TrainFns&#45;&gt;Fn -->
<g id="edge45" class="edge">
<title>TrainFns-&gt;Fn</title>
<path fill="none" stroke="#000000" d="M225.3086,-864.0069C208.5916,-824.259 173.6904,-726.2852 197.3933,-648 200.6594,-637.2127 206.8697,-626.6108 213.2246,-617.6963"/>
<polygon fill="#000000" stroke="#000000" points="216.0217,-619.8001 219.2703,-609.7156 210.442,-615.5732 216.0217,-619.8001"/>
</g>
<!-- close_bracket&#45;&gt;Args -->
<g id="edge30" class="edge">
<title>close_bracket-&gt;Args</title>
<path fill="none" stroke="#000000" d="M342.6374,-828.0844C333.8913,-855.2719 324.3933,-908.3578 324.3933,-954 324.3933,-1098 324.3933,-1098 324.3933,-1098 324.3933,-1140.1589 305.9621,-1185.9862 294.3939,-1214.3547"/>
<polygon fill="#000000" stroke="#000000" points="291.0062,-1213.395 290.4893,-1223.9772 297.4926,-1216.027 291.0062,-1213.395"/>
</g>
<!-- close_bracket&#45;&gt;Args -->
<g id="edge34" class="edge">
<title>close_bracket-&gt;Args</title>
<path fill="none" stroke="#000000" d="M354.2755,-828.0844C351.8913,-855.2719 342.3933,-908.3578 342.3933,-954 342.3933,-1098 342.3933,-1098 342.3933,-1098 342.3933,-1141.71 322.5809,-1189.3634 306.2197,-1217.4141"/>
<polygon fill="#000000" stroke="#000000" points="303.1076,-1215.7927 300.8371,-1226.1414 309.0656,-1219.4673 303.1076,-1215.7927"/>
</g>
<!-- Fns&#45;&gt;Var -->
<g id="edge41" class="edge">
<title>Fns-&gt;Var</title>
<path fill="none" stroke="#000000" d="M259.1203,-671.8267C301.0037,-681.3906 386.4837,-701.2347 458.3933,-720 562.3939,-747.1397 684.4533,-782.5879 742.8533,-799.7723"/>
<polygon fill="#000000" stroke="#000000" points="742.0849,-803.1945 752.6664,-802.6643 744.0637,-796.4801 742.0849,-803.1945"/>
</g>
<!-- Fns&#45;&gt;Vector -->
<g id="edge43" class="edge">
<title>Fns-&gt;Vector</title>
<path fill="none" stroke="#000000" d="M258.264,-673.6308C301.5406,-688.418 389.5015,-725.5157 425.3933,-792 432.9941,-806.0793 430.316,-812.7761 425.3933,-828 419.321,-846.7792 405.4656,-845.2208 399.3933,-864 394.4706,-879.2239 396.4431,-884.2743 399.3933,-900 412.3743,-969.1949 410.636,-999.7497 465.3933,-1044 487.8966,-1062.1854 562.8372,-1079.6394 612.165,-1089.5676"/>
<polygon fill="#000000" stroke="#000000" points="611.7847,-1093.0602 622.2742,-1091.5695 613.1446,-1086.1936 611.7847,-1093.0602"/>
</g>
<!-- Fns&#45;&gt;Fns -->
<g id="edge50" class="edge">
<title>Fns-&gt;Fns</title>
<path fill="none" stroke="#000000" d="M253.2883,-678.4321C266.0813,-681.6753 278.3933,-677.5313 278.3933,-666 278.3933,-657.6218 271.8939,-653.1433 263.4328,-652.5644"/>
<polygon fill="#000000" stroke="#000000" points="262.8952,-649.1004 253.2883,-653.5679 263.5843,-656.0665 262.8952,-649.1004"/>
</g>
<!-- Fns&#45;&gt;Fn -->
<g id="edge39" class="edge">
<title>Fns-&gt;Fn</title>
<path fill="none" stroke="#000000" d="M221.8716,-649.6621C219.9583,-641.1306 219.4328,-630.474 220.2952,-620.7753"/>
<polygon fill="#000000" stroke="#000000" points="223.7737,-621.1776 221.7757,-610.7729 216.8491,-620.1526 223.7737,-621.1776"/>
</g>
<!-- Fns&#45;&gt;Fn -->
<g id="edge48" class="edge">
<title>Fns-&gt;Fn</title>
<path fill="none" stroke="#000000" d="M233.3933,-647.8314C233.3933,-640.131 233.3933,-630.9743 233.3933,-622.4166"/>
<polygon fill="#000000" stroke="#000000" points="236.8934,-622.4132 233.3933,-612.4133 229.8934,-622.4133 236.8934,-622.4132"/>
</g>
<!-- Fns&#45;&gt;Fn -->
<g id="edge51" class="edge">
<title>Fns-&gt;Fn</title>
<path fill="none" stroke="#000000" d="M244.9149,-649.6621C246.8283,-641.1306 247.3538,-630.474 246.4914,-620.7753"/>
<polygon fill="#000000" stroke="#000000" points="249.9374,-620.1526 245.0109,-610.7729 243.0129,-621.1776 249.9374,-620.1526"/>
</g>
<!-- Fn&#45;&gt;Var -->
<g id="edge55" class="edge">
<title>Fn-&gt;Var</title>
<path fill="none" stroke="#000000" d="M256.6812,-603.2467C342.9384,-637.4959 644.422,-757.2026 744.6867,-797.0136"/>
<polygon fill="#000000" stroke="#000000" points="743.4325,-800.2813 754.0183,-800.7188 746.0158,-793.7754 743.4325,-800.2813"/>
</g>
<!-- Fn&#45;&gt;Fn -->
<g id="edge49" class="edge">
<title>Fn-&gt;Fn</title>
<path fill="none" stroke="#000000" d="M253.2883,-606.4321C266.0813,-609.6753 278.3933,-605.5313 278.3933,-594 278.3933,-585.6218 271.8939,-581.1433 263.4328,-580.5644"/>
<polygon fill="#000000" stroke="#000000" points="262.8952,-577.1004 253.2883,-581.5679 263.5843,-584.0665 262.8952,-577.1004"/>
</g>
<!-- PrimitiveFn -->
<g id="node19" class="node">
<title>PrimitiveFn</title>
<ellipse fill="none" stroke="#000000" cx="363.3933" cy="-450" rx="57.3573" ry="18"/>
<text text-anchor="middle" x="363.3933" y="-445.8" font-family="Times,serif" font-size="14.00" fill="#000000">PrimitiveFn</text>
</g>
<!-- Fn&#45;&gt;PrimitiveFn -->
<g id="edge52" class="edge">
<title>Fn-&gt;PrimitiveFn</title>
<path fill="none" stroke="#000000" d="M253.5622,-581.9922C269.1784,-572.0463 290.7177,-556.8524 306.3933,-540 324.066,-521.0006 339.4876,-495.7951 349.8177,-476.8921"/>
<polygon fill="#000000" stroke="#000000" points="352.9895,-478.3823 354.6038,-467.9112 346.812,-475.0901 352.9895,-478.3823"/>
</g>
<!-- Rank -->
<g id="node20" class="node">
<title>Rank</title>
<ellipse fill="none" stroke="#000000" cx="203.3933" cy="-450" rx="31.341" ry="18"/>
<text text-anchor="middle" x="203.3933" y="-445.8" font-family="Times,serif" font-size="14.00" fill="#000000">Rank</text>
</g>
<!-- Fn&#45;&gt;Rank -->
<g id="edge53" class="edge">
<title>Fn-&gt;Rank</title>
<path fill="none" stroke="#000000" d="M229.6544,-576.0535C224.5344,-551.4774 215.2893,-507.1008 209.2469,-478.0974"/>
<polygon fill="#000000" stroke="#000000" points="212.6453,-477.2487 207.1793,-468.1727 205.7925,-478.6764 212.6453,-477.2487"/>
</g>
<!-- OpFn -->
<g id="node21" class="node">
<title>OpFn</title>
<ellipse fill="none" stroke="#000000" cx="264.3933" cy="-522" rx="33.0662" ry="18"/>
<text text-anchor="middle" x="264.3933" y="-517.8" font-family="Times,serif" font-size="14.00" fill="#000000">OpFn</text>
</g>
<!-- Fn&#45;&gt;OpFn -->
<g id="edge54" class="edge">
<title>Fn-&gt;OpFn</title>
<path fill="none" stroke="#000000" d="M240.8975,-576.5708C244.4617,-568.2927 248.8027,-558.2104 252.779,-548.9752"/>
<polygon fill="#000000" stroke="#000000" points="256.0028,-550.3379 256.7428,-539.7689 249.5735,-547.5696 256.0028,-550.3379"/>
</g>
<!-- Op -->
<g id="node22" class="node">
<title>Op</title>
<ellipse fill="none" stroke="#000000" cx="293.3933" cy="-378" rx="27" ry="18"/>
<text text-anchor="middle" x="293.3933" y="-373.8" font-family="Times,serif" font-size="14.00" fill="#000000">Op</text>
</g>
<!-- PrimitiveFn&#45;&gt;Op -->
<g id="edge57" class="edge">
<title>PrimitiveFn-&gt;Op</title>
<path fill="none" stroke="#000000" d="M346.4482,-432.5708C337.1621,-423.0194 325.541,-411.0662 315.544,-400.7836"/>
<polygon fill="#000000" stroke="#000000" points="317.7616,-398.0436 308.2813,-393.3134 312.7426,-402.9232 317.7616,-398.0436"/>
</g>
<!-- monadic -->
<g id="node23" class="node">
<title>monadic</title>
<ellipse fill="none" stroke="#000000" cx="600.3933" cy="-378" rx="44.0833" ry="18"/>
<text text-anchor="middle" x="600.3933" y="-373.8" font-family="Times,serif" font-size="14.00" fill="#000000">monadic</text>
</g>
<!-- PrimitiveFn&#45;&gt;monadic -->
<g id="edge60" class="edge">
<title>PrimitiveFn-&gt;monadic</title>
<path fill="none" stroke="#000000" d="M406.3036,-437.9577C443.6933,-427.3335 499.3059,-411.2147 547.3933,-396 550.497,-395.018 553.696,-393.9847 556.9122,-392.9305"/>
<polygon fill="#000000" stroke="#000000" points="558.1471,-396.2084 566.5343,-389.735 555.9409,-389.5652 558.1471,-396.2084"/>
</g>
<!-- dyadic -->
<g id="node24" class="node">
<title>dyadic</title>
<ellipse fill="none" stroke="#000000" cx="375.3933" cy="-378" rx="36.5594" ry="18"/>
<text text-anchor="middle" x="375.3933" y="-373.8" font-family="Times,serif" font-size="14.00" fill="#000000">dyadic</text>
</g>
<!-- PrimitiveFn&#45;&gt;dyadic -->
<g id="edge61" class="edge">
<title>PrimitiveFn-&gt;dyadic</title>
<path fill="none" stroke="#000000" d="M366.4214,-431.8314C367.7048,-424.131 369.2309,-414.9743 370.6572,-406.4166"/>
<polygon fill="#000000" stroke="#000000" points="374.1327,-406.8526 372.3244,-396.4133 367.228,-405.7018 374.1327,-406.8526"/>
</g>
<!-- ambivalent -->
<g id="node25" class="node">
<title>ambivalent</title>
<ellipse fill="none" stroke="#000000" cx="484.3933" cy="-378" rx="53.8905" ry="18"/>
<text text-anchor="middle" x="484.3933" y="-373.8" font-family="Times,serif" font-size="14.00" fill="#000000">ambivalent</text>
</g>
<!-- PrimitiveFn&#45;&gt;ambivalent -->
<g id="edge62" class="edge">
<title>PrimitiveFn-&gt;ambivalent</title>
<path fill="none" stroke="#000000" d="M390.2471,-434.0209C407.4791,-423.7671 430.0508,-410.336 448.7731,-399.1955"/>
<polygon fill="#000000" stroke="#000000" points="450.8106,-402.0559 457.6145,-393.9345 447.2311,-396.0403 450.8106,-402.0559"/>
</g>
<!-- Rank&#45;&gt;Op -->
<g id="edge59" class="edge">
<title>Rank-&gt;Op</title>
<path fill="none" stroke="#000000" d="M222.0413,-435.0816C235.2977,-424.4764 253.2649,-410.1027 267.8529,-398.4323"/>
<polygon fill="#000000" stroke="#000000" points="270.3681,-400.9024 275.9904,-391.9223 265.9952,-395.4363 270.3681,-400.9024"/>
</g>
<!-- OpRanked -->
<g id="node26" class="node">
<title>OpRanked</title>
<ellipse fill="none" stroke="#000000" cx="276.3933" cy="-306" rx="52.1713" ry="18"/>
<text text-anchor="middle" x="276.3933" y="-301.8" font-family="Times,serif" font-size="14.00" fill="#000000">OpRanked</text>
</g>
<!-- Rank&#45;&gt;OpRanked -->
<g id="edge64" class="edge">
<title>Rank-&gt;OpRanked</title>
<path fill="none" stroke="#000000" d="M212.1988,-432.6302C224.7366,-407.8982 247.8506,-362.3034 262.6534,-333.1034"/>
<polygon fill="#000000" stroke="#000000" points="265.9277,-334.3851 267.3275,-323.8831 259.6841,-331.2199 265.9277,-334.3851"/>
</g>
<!-- Ranked -->
<g id="node27" class="node">
<title>Ranked</title>
<ellipse fill="none" stroke="#000000" cx="169.3933" cy="-378" rx="40.5712" ry="18"/>
<text text-anchor="middle" x="169.3933" y="-373.8" font-family="Times,serif" font-size="14.00" fill="#000000">Ranked</text>
</g>
<!-- Rank&#45;&gt;Ranked -->
<g id="edge65" class="edge">
<title>Rank-&gt;Ranked</title>
<path fill="none" stroke="#000000" d="M185.163,-435.0816C179.0062,-426.5552 173.1699,-415.5929 169.2423,-405.558"/>
<polygon fill="#000000" stroke="#000000" points="172.5177,-404.3173 166.0097,-395.9568 165.8836,-406.5509 172.5177,-404.3173"/>
</g>
<!-- Rank&#45;&gt;Ranked -->
<g id="edge66" class="edge">
<title>Rank-&gt;Ranked</title>
<path fill="none" stroke="#000000" d="M195.1628,-432.5708C191.2537,-424.2927 186.4927,-414.2104 182.1316,-404.9752"/>
<polygon fill="#000000" stroke="#000000" points="185.2191,-403.3168 177.7841,-395.7689 178.8894,-406.3059 185.2191,-403.3168"/>
</g>
<!-- Rank&#45;&gt;Ranked -->
<g id="edge70" class="edge">
<title>Rank-&gt;Ranked</title>
<path fill="none" stroke="#000000" d="M206.7184,-431.8314C204.2671,-422.9918 199.514,-412.2334 193.9273,-402.6648"/>
<polygon fill="#000000" stroke="#000000" points="196.697,-400.4991 188.3633,-393.9568 190.7982,-404.2681 196.697,-400.4991"/>
</g>
<!-- OpFn&#45;&gt;PrimitiveFn -->
<g id="edge56" class="edge">
<title>OpFn-&gt;PrimitiveFn</title>
<path fill="none" stroke="#000000" d="M284.4274,-507.4297C298.157,-497.4446 316.6415,-484.0013 332.275,-472.6315"/>
<polygon fill="#000000" stroke="#000000" points="334.5898,-475.2758 340.6186,-466.5634 330.4726,-469.6146 334.5898,-475.2758"/>
</g>
<!-- OpFn&#45;&gt;Rank -->
<g id="edge58" class="edge">
<title>OpFn-&gt;Rank</title>
<path fill="none" stroke="#000000" d="M250.2453,-505.3008C242.4694,-496.1226 232.6801,-484.568 224.063,-474.3971"/>
<polygon fill="#000000" stroke="#000000" points="226.5992,-471.9761 217.4645,-466.6087 221.2583,-476.501 226.5992,-471.9761"/>
</g>
<!-- Op&#45;&gt;OpRanked -->
<g id="edge63" class="edge">
<title>Op-&gt;OpRanked</title>
<path fill="none" stroke="#000000" d="M289.191,-360.2022C287.3253,-352.3005 285.0848,-342.811 283.0034,-333.9959"/>
<polygon fill="#000000" stroke="#000000" points="286.3696,-333.0212 280.6653,-324.0931 279.5569,-334.6298 286.3696,-333.0212"/>
</g>
<!-- hybrid -->
<g id="node33" class="node">
<title>hybrid</title>
<ellipse fill="none" stroke="#000000" cx="276.3933" cy="-234" rx="36.4994" ry="18"/>
<text text-anchor="middle" x="276.3933" y="-229.8" font-family="Times,serif" font-size="14.00" fill="#000000">hybrid</text>
</g>
<!-- OpRanked&#45;&gt;hybrid -->
<g id="edge75" class="edge">
<title>OpRanked-&gt;hybrid</title>
<path fill="none" stroke="#000000" d="M270.4409,-287.8314C269.6789,-280.0125 269.4629,-270.6923 269.7928,-262.0221"/>
<polygon fill="#000000" stroke="#000000" points="273.2937,-262.1239 270.466,-251.9134 266.3092,-261.6587 273.2937,-262.1239"/>
</g>
<!-- OpRanked&#45;&gt;hybrid -->
<g id="edge76" class="edge">
<title>OpRanked-&gt;hybrid</title>
<path fill="none" stroke="#000000" d="M282.3457,-287.8314C283.1076,-280.0125 283.3237,-270.6923 282.9938,-262.0221"/>
<polygon fill="#000000" stroke="#000000" points="286.4774,-261.6587 282.3206,-251.9134 279.4929,-262.1239 286.4774,-261.6587"/>
</g>
<!-- open_sq -->
<g id="node28" class="node">
<title>open_sq</title>
<ellipse fill="none" stroke="#000000" cx="232.3933" cy="-162" rx="43.4435" ry="18"/>
<text text-anchor="middle" x="232.3933" y="-157.8" font-family="Times,serif" font-size="14.00" fill="#000000">open_sq</text>
</g>
<!-- Ranked&#45;&gt;open_sq -->
<g id="edge67" class="edge">
<title>Ranked-&gt;open_sq</title>
<path fill="none" stroke="#000000" d="M170.7104,-359.9555C178.2811,-322.0613 203.7225,-234.0128 219.7896,-189.2213"/>
<polygon fill="#000000" stroke="#000000" points="223.0726,-190.4344 223.2624,-179.8413 216.5081,-188.0039 223.0726,-190.4344"/>
</g>
<!-- Ranked&#45;&gt;open_sq -->
<g id="edge71" class="edge">
<title>Ranked-&gt;open_sq</title>
<path fill="none" stroke="#000000" d="M178.4607,-360.3238C192.858,-322.9193 218.6311,-235.4915 228.8865,-190.2464"/>
<polygon fill="#000000" stroke="#000000" points="232.3608,-190.7377 231.04,-180.2255 225.517,-189.267 232.3608,-190.7377"/>
</g>
<!-- monadic_ranked -->
<g id="node32" class="node">
<title>monadic_ranked</title>
<ellipse fill="none" stroke="#000000" cx="75.3933" cy="-306" rx="75.2867" ry="18"/>
<text text-anchor="middle" x="75.3933" y="-301.8" font-family="Times,serif" font-size="14.00" fill="#000000">monadic_ranked</text>
</g>
<!-- Ranked&#45;&gt;monadic_ranked -->
<g id="edge74" class="edge">
<title>Ranked-&gt;monadic_ranked</title>
<path fill="none" stroke="#000000" d="M148.9967,-362.3771C136.4484,-352.7656 120.1278,-340.2648 106.0444,-329.4775"/>
<polygon fill="#000000" stroke="#000000" points="108.1234,-326.6611 98.0563,-323.3589 103.8668,-332.2183 108.1234,-326.6611"/>
</g>
<!-- open_sq&#45;&gt;Int -->
<g id="edge68" class="edge">
<title>open_sq-&gt;Int</title>
<path fill="none" stroke="#000000" d="M235.7776,-143.8314C239.4586,-134.9918 244.8236,-124.2334 250.275,-114.6648"/>
<polygon fill="#000000" stroke="#000000" points="253.353,-116.3368 255.4758,-105.9568 247.3433,-112.7475 253.353,-116.3368"/>
</g>
<!-- open_sq&#45;&gt;Int -->
<g id="edge78" class="edge">
<title>open_sq-&gt;Int</title>
<path fill="none" stroke="#000000" d="M247.0017,-144.937C252.1299,-136.6655 257.5816,-126.5295 261.9707,-117.2261"/>
<polygon fill="#000000" stroke="#000000" points="265.2327,-118.5044 266.1019,-107.9453 258.8376,-115.6577 265.2327,-118.5044"/>
</g>
<!-- float -->
<g id="node31" class="node">
<title>float</title>
<ellipse fill="none" stroke="#000000" cx="195.3933" cy="-90" rx="28.9696" ry="18"/>
<text text-anchor="middle" x="195.3933" y="-85.8" font-family="Times,serif" font-size="14.00" fill="#000000">float</text>
</g>
<!-- open_sq&#45;&gt;float -->
<g id="edge72" class="edge">
<title>open_sq-&gt;float</title>
<path fill="none" stroke="#000000" d="M223.2472,-144.2022C218.9589,-135.8574 213.7605,-125.7417 209.0215,-116.5197"/>
<polygon fill="#000000" stroke="#000000" points="211.9902,-114.6391 204.3065,-107.3446 205.7642,-117.8387 211.9902,-114.6391"/>
</g>
<!-- close_sq -->
<g id="node30" class="node">
<title>close_sq</title>
<ellipse fill="none" stroke="#000000" cx="269.3933" cy="-18" rx="44.0814" ry="18"/>
<text text-anchor="middle" x="269.3933" y="-13.8" font-family="Times,serif" font-size="14.00" fill="#000000">close_sq</text>
</g>
<!-- Int&#45;&gt;close_sq -->
<g id="edge69" class="edge">
<title>Int-&gt;close_sq</title>
<path fill="none" stroke="#000000" d="M263.4776,-72.2022C262.6878,-64.3271 262.4588,-54.875 262.7904,-46.0852"/>
<polygon fill="#000000" stroke="#000000" points="266.3002,-46.0532 263.4731,-35.8425 259.3157,-45.5876 266.3002,-46.0532"/>
</g>
<!-- Int&#45;&gt;close_sq -->
<g id="edge79" class="edge">
<title>Int-&gt;close_sq</title>
<path fill="none" stroke="#000000" d="M275.309,-72.2022C276.0988,-64.3271 276.3278,-54.875 275.9961,-46.0852"/>
<polygon fill="#000000" stroke="#000000" points="279.4708,-45.5876 275.3135,-35.8425 272.4863,-46.0532 279.4708,-45.5876"/>
</g>
<!-- float&#45;&gt;close_sq -->
<g id="edge73" class="edge">
<title>float-&gt;close_sq</title>
<path fill="none" stroke="#000000" d="M211.0868,-74.7307C220.8765,-65.2055 233.6851,-52.7431 244.803,-41.9257"/>
<polygon fill="#000000" stroke="#000000" points="247.4454,-44.238 252.1719,-34.7559 242.5639,-39.2209 247.4454,-44.238"/>
</g>
<!-- hybrid&#45;&gt;open_sq -->
<g id="edge77" class="edge">
<title>hybrid-&gt;open_sq</title>
<path fill="none" stroke="#000000" d="M265.7421,-216.5708C260.5382,-208.0553 254.1676,-197.6308 248.394,-188.183"/>
<polygon fill="#000000" stroke="#000000" points="251.2999,-186.226 243.0989,-179.5182 245.3269,-189.8762 251.2999,-186.226"/>
</g>
<!-- Let -->
<g id="node34" class="node">
<title>Let</title>
<ellipse fill="none" stroke="#000000" cx="777.3933" cy="-882" rx="27" ry="18"/>
<text text-anchor="middle" x="777.3933" y="-877.8" font-family="Times,serif" font-size="14.00" fill="#000000">Let</text>
</g>
<!-- Let&#45;&gt;Var -->
<g id="edge80" class="edge">
<title>Let-&gt;Var</title>
<path fill="none" stroke="#000000" d="M760.7473,-867.4297C757.1036,-857.9634 756.2228,-845.3888 758.1048,-834.4197"/>
<polygon fill="#000000" stroke="#000000" points="761.5422,-835.1142 760.7557,-824.5486 754.7817,-833.2986 761.5422,-835.1142"/>
</g>
<!-- Let&#45;&gt;Var -->
<g id="edge83" class="edge">
<title>Let-&gt;Var</title>
<path fill="none" stroke="#000000" d="M771.4776,-864.2022C770.6731,-856.1807 770.4504,-846.5231 770.8095,-837.5957"/>
<polygon fill="#000000" stroke="#000000" points="774.303,-837.8099 771.4983,-827.593 767.3195,-837.3289 774.303,-837.8099"/>
</g>
<!-- Let&#45;&gt;Var -->
<g id="edge86" class="edge">
<title>Let-&gt;Var</title>
<path fill="none" stroke="#000000" d="M783.309,-864.2022C784.1135,-856.1807 784.3361,-846.5231 783.9771,-837.5957"/>
<polygon fill="#000000" stroke="#000000" points="787.4671,-837.3289 783.2883,-827.593 780.4836,-837.8099 787.4671,-837.3289"/>
</g>
<!-- Let&#45;&gt;Var -->
<g id="edge89" class="edge">
<title>Let-&gt;Var</title>
<path fill="none" stroke="#000000" d="M794.0392,-867.4297C797.6829,-857.9634 798.5638,-845.3888 796.6818,-834.4197"/>
<polygon fill="#000000" stroke="#000000" points="800.0048,-833.2986 794.0309,-824.5486 793.2444,-835.1142 800.0048,-833.2986"/>
</g>
<!-- let_op&#45;&gt;Expr -->
<g id="edge85" class="edge">
<title>let_op-&gt;Expr</title>
<path fill="none" stroke="#000000" d="M808.6929,-746.3836C861.9272,-762.7548 964.3933,-804.3514 964.3933,-882 964.3933,-1314 964.3933,-1314 964.3933,-1314 964.3933,-1375.9035 503.4211,-1436.3726 363.3081,-1453.3225"/>
<polygon fill="#000000" stroke="#000000" points="362.5356,-1449.89 353.0245,-1454.5579 363.3706,-1456.84 362.5356,-1449.89"/>
</g>
<!-- let_op&#45;&gt;Vecs -->
<g id="edge82" class="edge">
<title>let_op-&gt;Vecs</title>
<path fill="none" stroke="#000000" d="M790.5378,-754.9207C811.3825,-783.7752 848.6665,-844.7483 838.3933,-900 820.9972,-993.5604 772.3931,-1096.5102 748.2978,-1143.7144"/>
<polygon fill="#000000" stroke="#000000" points="745.1594,-1142.1638 743.6849,-1152.6556 751.3803,-1145.3733 745.1594,-1142.1638"/>
</g>
<!-- let_op&#45;&gt;Fns -->
<g id="edge88" class="edge">
<title>let_op-&gt;Fns</title>
<path fill="none" stroke="#000000" d="M742.9509,-733.4415C645.7276,-720.5737 369.7721,-684.0501 269.9771,-670.842"/>
<polygon fill="#000000" stroke="#000000" points="270.4325,-667.3718 260.0597,-669.5294 269.514,-674.3113 270.4325,-667.3718"/>
</g>
<!-- let_op&#45;&gt;Fn -->
<g id="edge91" class="edge">
<title>let_op-&gt;Fn</title>
<path fill="none" stroke="#000000" d="M764.7862,-721.0241C748.0715,-699.9402 716.4495,-664.7155 680.3933,-648 607.6683,-614.285 364.5646,-599.932 270.7602,-595.557"/>
<polygon fill="#000000" stroke="#000000" points="270.7469,-592.0529 260.5982,-595.0951 270.429,-599.0457 270.7469,-592.0529"/>
</g>
<!-- Scalar&#45;&gt;open_bracket -->
<g id="edge93" class="edge">
<title>Scalar-&gt;open_bracket</title>
<path fill="none" stroke="#000000" d="M477.1346,-1018.7C430.4381,-1007.2332 343.7588,-984.7423 287.2927,-969.5395"/>
<polygon fill="#000000" stroke="#000000" points="288.0305,-966.1134 277.4638,-966.8838 286.2047,-972.8711 288.0305,-966.1134"/>
</g>
<!-- Scalar&#45;&gt;open_bracket -->
<g id="edge96" class="edge">
<title>Scalar-&gt;open_bracket</title>
<path fill="none" stroke="#000000" d="M478.8451,-1016.808C434.0029,-1004.4696 349.8142,-982.4387 292.6257,-968.0232"/>
<polygon fill="#000000" stroke="#000000" points="293.1824,-964.5543 282.631,-965.5127 291.4771,-971.3435 293.1824,-964.5543"/>
</g>
<!-- unary_negate -->
<g id="node37" class="node">
<title>unary_negate</title>
<ellipse fill="none" stroke="#000000" cx="509.3933" cy="-954" rx="63.1054" ry="18"/>
<text text-anchor="middle" x="509.3933" y="-949.8" font-family="Times,serif" font-size="14.00" fill="#000000">unary_negate</text>
</g>
<!-- Scalar&#45;&gt;unary_negate -->
<g id="edge99" class="edge">
<title>Scalar-&gt;unary_negate</title>
<path fill="none" stroke="#000000" d="M503.4776,-1008.2022C502.6937,-1000.3864 502.4622,-991.0171 502.783,-982.2836"/>
<polygon fill="#000000" stroke="#000000" points="506.2893,-982.2999 503.4483,-972.0931 499.3042,-981.8439 506.2893,-982.2999"/>
</g>
<!-- Scalar&#45;&gt;unary_negate -->
<g id="edge102" class="edge">
<title>Scalar-&gt;unary_negate</title>
<path fill="none" stroke="#000000" d="M515.309,-1008.2022C516.0928,-1000.3864 516.3243,-991.0171 516.0035,-982.2836"/>
<polygon fill="#000000" stroke="#000000" points="519.4824,-981.8439 515.3383,-972.0931 512.4972,-982.2999 519.4824,-981.8439"/>
</g>
<!-- Value -->
<g id="node38" class="node">
<title>Value</title>
<ellipse fill="none" stroke="#000000" cx="442.3933" cy="-882" rx="34.1871" ry="18"/>
<text text-anchor="middle" x="442.3933" y="-877.8" font-family="Times,serif" font-size="14.00" fill="#000000">Value</text>
</g>
<!-- Scalar&#45;&gt;Value -->
<g id="edge101" class="edge">
<title>Scalar-&gt;Value</title>
<path fill="none" stroke="#000000" d="M483.0283,-1014.0567C466.6229,-1005.0589 446.8966,-991.0066 437.3933,-972 427.8127,-952.8389 429.9082,-928.4348 433.9319,-909.8741"/>
<polygon fill="#000000" stroke="#000000" points="437.3781,-910.5174 436.3767,-899.97 430.5821,-908.8398 437.3781,-910.5174"/>
</g>
<!-- int -->
<g id="node39" class="node">
<title>int</title>
<ellipse fill="none" stroke="#000000" cx="521.3933" cy="-882" rx="27" ry="18"/>
<text text-anchor="middle" x="521.3933" y="-877.8" font-family="Times,serif" font-size="14.00" fill="#000000">int</text>
</g>
<!-- Scalar&#45;&gt;int -->
<g id="edge104" class="edge">
<title>Scalar-&gt;int</title>
<path fill="none" stroke="#000000" d="M535.7583,-1014.0567C552.1636,-1005.0589 571.89,-991.0066 581.3933,-972 588.5487,-957.6892 587.9027,-950.616 581.3933,-936 574.8615,-921.3337 562.1599,-908.9798 550.1186,-899.8057"/>
<polygon fill="#000000" stroke="#000000" points="552.1403,-896.9485 541.9719,-893.9731 548.0654,-902.6402 552.1403,-896.9485"/>
</g>
<!-- unary_negate&#45;&gt;Value -->
<g id="edge100" class="edge">
<title>unary_negate-&gt;Value</title>
<path fill="none" stroke="#000000" d="M493.1745,-936.5708C484.5332,-927.2847 473.7795,-915.7285 464.3956,-905.6442"/>
<polygon fill="#000000" stroke="#000000" points="466.9189,-903.2181 457.5443,-898.2817 461.7944,-907.9867 466.9189,-903.2181"/>
</g>
<!-- unary_negate&#45;&gt;int -->
<g id="edge103" class="edge">
<title>unary_negate-&gt;int</title>
<path fill="none" stroke="#000000" d="M512.4214,-935.8314C513.7245,-928.0125 515.2779,-918.6923 516.7229,-910.0221"/>
<polygon fill="#000000" stroke="#000000" points="520.216,-910.3528 518.4077,-899.9134 513.3113,-909.2019 520.216,-910.3528"/>
</g>
</g>
</svg>